<svg width="60" height="60" viewBox="0 0 60 60" fill="none" xmlns="http://www.w3.org/2000/svg">
<path fill-rule="evenodd" clip-rule="evenodd" d="M10.6301 25C10.2188 26.5981 10 28.2735 10 30C10 31.7265 10.2188 33.4019 10.6301 35H20.2629C20.0943 33.4318 20 31.7655 20 30C20 28.2345 20.0943 26.5682 20.2629 25H10.6301ZM12.6756 20H21.1037C21.8662 16.7178 22.9349 14.0126 24.0191 11.8689C24.2209 11.4698 24.4231 11.0905 24.6238 10.7309C19.5351 12.1476 15.2637 15.526 12.6756 20ZM30 11.512C29.5315 12.2134 29.0079 13.0834 28.4809 14.1254C27.6919 15.6855 26.8913 17.6387 26.2572 20H33.7428C33.1087 17.6387 32.3081 15.6855 31.5191 14.1254C30.9921 13.0834 30.4685 12.2134 30 11.512ZM34.7045 25H25.2955C25.1076 26.5461 25 28.212 25 30C25 31.788 25.1076 33.4539 25.2955 35H34.7045C34.8924 33.4539 35 31.788 35 30C35 28.212 34.8924 26.5461 34.7045 25ZM39.7371 35C39.9057 33.4318 40 31.7655 40 30C40 28.2345 39.9057 26.5682 39.7371 25H49.3699C49.7812 26.5981 50 28.2735 50 30C50 31.7265 49.7812 33.4019 49.3699 35H39.7371ZM33.7428 40H26.2572C26.8913 42.3613 27.6919 44.3145 28.4809 45.8746C29.0079 46.9166 29.5315 47.7866 30 48.488C30.4685 47.7866 30.9921 46.9166 31.5191 45.8746C32.3081 44.3145 33.1087 42.3613 33.7428 40ZM24.6238 49.2691C24.4231 48.9095 24.2209 48.5302 24.0191 48.1311C22.9349 45.9874 21.8662 43.2822 21.1037 40H12.6756C15.2637 44.474 19.5351 47.8524 24.6238 49.2691ZM35.3762 49.2691C35.5769 48.9095 35.7791 48.5302 35.9809 48.1311C37.0651 45.9874 38.1338 43.2822 38.8963 40H47.3244C44.7363 44.474 40.4649 47.8524 35.3762 49.2691ZM47.3244 20H38.8963C38.1338 16.7178 37.0651 14.0126 35.9809 11.8689C35.7791 11.4698 35.5769 11.0905 35.3762 10.7309C40.4649 12.1476 44.7363 15.526 47.3244 20ZM5 30C5 16.1929 16.1929 5 30 5C43.8071 5 55 16.1929 55 30C55 43.8071 43.8071 55 30 55C16.1929 55 5 43.8071 5 30Z" fill="#8F2247"/>
</svg>
