<svg width="60" height="60" viewBox="0 0 60 60" fill="none" xmlns="http://www.w3.org/2000/svg">
<path fill-rule="evenodd" clip-rule="evenodd" d="M30 15C24.4772 15 20 19.4772 20 25C20 30.5228 24.4772 35 30 35C35.5228 35 40 30.5228 40 25C40 19.4772 35.5228 15 30 15ZM30 20C27.2386 20 25 22.2386 25 25C25 27.7614 27.2386 30 30 30C32.7614 30 35 27.7614 35 25C35 22.2386 32.7614 20 30 20Z" fill="#8F2247"/>
<path fill-rule="evenodd" clip-rule="evenodd" d="M27.7252 56.4894C28.0148 56.6883 28.2451 56.8415 28.4064 56.9471L28.6719 57.118C29.4833 57.6261 30.5152 57.627 31.3266 57.119L31.5936 56.9471C31.7549 56.8415 31.9852 56.6883 32.2748 56.4894C32.8538 56.0917 33.6712 55.5102 34.6477 54.7603C36.5966 53.2636 39.2002 51.0804 41.8117 48.3339C46.9641 42.9152 52.5 34.9311 52.5 25.4545C52.5 19.3845 50.1428 13.5521 45.9296 9.2432C41.7146 4.93239 35.9857 2.5 30 2.5C24.0143 2.5 18.2854 4.93239 14.0703 9.2432C9.85719 13.5521 7.5 19.3845 7.5 25.4545C7.5 34.9311 13.0359 42.9152 18.1883 48.3339C20.7998 51.0804 23.4034 53.2636 25.3523 54.7603C26.3288 55.5102 27.1462 56.0917 27.7252 56.4894ZM30 7.5C25.3771 7.5 20.9318 9.37766 17.6454 12.7388C14.3571 16.1018 12.5 20.6748 12.5 25.4545C12.5 33.0018 16.9641 39.7904 21.8117 44.8885C24.2002 47.4004 26.5966 49.4116 28.3977 50.7947C29.0116 51.2662 29.5539 51.6628 30 51.9795C30.4461 51.6628 30.9884 51.2662 31.6023 50.7947C33.4034 49.4116 35.7998 47.4004 38.1883 44.8885C43.0359 39.7904 47.5 33.0018 47.5 25.4545C47.5 20.6748 45.6429 16.1018 42.3546 12.7388C39.0682 9.37766 34.6229 7.5 30 7.5Z" fill="#8F2247"/>
</svg>
