<svg width="29" height="32" viewBox="0 0 29 32" fill="none" xmlns="http://www.w3.org/2000/svg">
<path fill-rule="evenodd" clip-rule="evenodd" d="M6.66658 6.5C6.66658 3.00219 9.50211 0.166664 12.9999 0.166664H21.7083C25.6433 0.166664 28.8333 3.35663 28.8333 7.29166V24.7083C28.8333 28.6434 25.6433 31.8333 21.7083 31.8333H12.9999C9.50211 31.8333 6.66658 28.9978 6.66658 25.5V23.9167C6.66658 23.0422 7.37547 22.3333 8.24992 22.3333C9.12437 22.3333 9.83325 23.0422 9.83325 23.9167V25.5C9.83325 27.2489 11.251 28.6667 12.9999 28.6667H21.7083C23.8944 28.6667 25.6666 26.8945 25.6666 24.7083V7.29166C25.6666 5.10554 23.8944 3.33333 21.7083 3.33333H12.9999C11.251 3.33333 9.83325 4.7511 9.83325 6.5V8.08333C9.83325 8.95778 9.12437 9.66666 8.24992 9.66666C7.37547 9.66666 6.66658 8.95778 6.66658 8.08333V6.5ZM13.4637 10.1304C14.082 9.51208 15.0845 9.51208 15.7028 10.1304L20.4528 14.8804C21.0712 15.4987 21.0712 16.5013 20.4528 17.1196L15.7028 21.8696C15.0845 22.4879 14.082 22.4879 13.4637 21.8696C12.8453 21.2513 12.8453 20.2487 13.4637 19.6304L15.5107 17.5833L1.91659 17.5833C1.04213 17.5833 0.333252 16.8744 0.333252 16C0.333252 15.1255 1.04213 14.4167 1.91659 14.4167L15.5107 14.4167L13.4637 12.3696C12.8453 11.7513 12.8453 10.7487 13.4637 10.1304Z" fill="#8F2247"/>
</svg>
