<svg width="60" height="60" viewBox="0 0 60 60" fill="none" xmlns="http://www.w3.org/2000/svg">
<path fill-rule="evenodd" clip-rule="evenodd" d="M48.0277 5.16799L9.24997 14.8624C4.096 16.1509 3.45263 23.2152 8.28903 25.4136L20.2366 30.8443C22.6861 31.9577 25.3377 32.3599 27.9144 32.0854C27.6399 34.6621 28.0421 37.3137 29.1555 39.7632L34.5862 51.7108C36.7846 56.5472 43.8489 55.9037 45.1374 50.7498L54.8318 11.9721C55.8591 7.86285 52.1369 4.14069 48.0277 5.16799ZM22.3056 26.2925C24.6483 27.3574 27.2704 27.4388 29.6184 26.6059C30.5058 26.2911 31.3541 25.8457 32.1334 25.2734C32.2419 25.1937 32.3491 25.1115 32.4548 25.0269L38.1768 20.4493C39.0876 19.7207 40.2791 20.9122 39.5505 21.823L34.9729 27.545C34.8883 27.6507 34.8061 27.7579 34.7264 27.8664C34.1541 28.6457 33.7087 29.4939 33.3939 30.3814C32.561 32.7294 32.6424 35.3514 33.7073 37.6942L39.138 49.6417C39.3773 50.1683 40.1464 50.0982 40.2867 49.5371L49.9811 10.7594C50.0929 10.3121 49.6877 9.90687 49.2404 10.0187L10.4627 19.7131C9.90158 19.8534 9.83154 20.6224 10.358 20.8618L22.3056 26.2925Z" fill="#8F2247"/>
</svg>
