<svg width="72" height="36" viewBox="0 0 72 36" fill="none" xmlns="http://www.w3.org/2000/svg">
<path fill-rule="evenodd" clip-rule="evenodd" d="M17.2063 2.62085C17.2063 1.51628 18.1017 0.62085 19.2063 0.62085H48.2548C49.3594 0.62085 50.2548 1.51628 50.2548 2.62085V20.5231H64.2927L56.8284 13.0844C56.046 12.3047 56.0438 11.0384 56.8236 10.256C57.6033 9.47363 58.8696 9.47145 59.652 10.2512L70.5452 21.1069C70.9217 21.4822 71.1334 21.992 71.1334 22.5236C71.1334 23.0552 70.9217 23.565 70.5452 23.9402L59.652 34.796C58.8696 35.5757 57.6033 35.5735 56.8236 34.7911C56.0438 34.0088 56.046 32.7424 56.8284 31.9627L64.2937 24.5231H48.2548C47.1502 24.5231 46.2548 23.6277 46.2548 22.5231V4.62085H21.2063V22.5231C21.2063 23.6277 20.3108 24.5231 19.2063 24.5231H2.86646C1.76189 24.5231 0.866455 23.6277 0.866455 22.5231C0.866455 21.4185 1.76189 20.5231 2.86646 20.5231H17.2063V2.62085ZM33.67 18.5807C35.6002 18.5807 37.1649 17.0214 37.1649 15.0978C37.1649 13.1743 35.6002 11.6149 33.67 11.6149C31.7399 11.6149 30.1751 13.1743 30.1751 15.0978C30.1751 17.0214 31.7399 18.5807 33.67 18.5807Z" fill="#8F2247"/>
</svg>
